<svg width="30" height="28" viewBox="0 0 30 28" fill="none" xmlns="http://www.w3.org/2000/svg">
<g filter="url(#filter0_d_38_37)">
<path d="M5.92563 9.85553H25" stroke="white" stroke-width="2" stroke-linecap="round"/>
<path d="M14.5627 1.70711C14.9532 1.31658 14.9532 0.683418 14.5627 0.292893C14.1721 -0.0976311 13.539 -0.0976311 13.1485 0.292893L14.5627 1.70711ZM5.00001 9.85555L4.2929 9.14844C3.90238 9.53897 3.90238 10.1721 4.2929 10.5627L5.00001 9.85555ZM13.1485 19.4182C13.539 19.8087 14.1721 19.8087 14.5627 19.4182C14.9532 19.0277 14.9532 18.3945 14.5627 18.004L13.1485 19.4182ZM13.1485 0.292893L4.2929 9.14844L5.70712 10.5627L14.5627 1.70711L13.1485 0.292893ZM4.2929 10.5627L13.1485 19.4182L14.5627 18.004L5.70712 9.14844L4.2929 10.5627Z" fill="white"/>
</g>
<defs>
<filter id="filter0_d_38_37" x="0" y="0" width="30" height="27.7111" filterUnits="userSpaceOnUse" color-interpolation-filters="sRGB">
<feFlood flood-opacity="0" result="BackgroundImageFix"/>
<feColorMatrix in="SourceAlpha" type="matrix" values="0 0 0 0 0 0 0 0 0 0 0 0 0 0 0 0 0 0 127 0" result="hardAlpha"/>
<feOffset dy="4"/>
<feGaussianBlur stdDeviation="2"/>
<feComposite in2="hardAlpha" operator="out"/>
<feColorMatrix type="matrix" values="0 0 0 0 0 0 0 0 0 0 0 0 0 0 0 0 0 0 0.25 0"/>
<feBlend mode="normal" in2="BackgroundImageFix" result="effect1_dropShadow_38_37"/>
<feBlend mode="normal" in="SourceGraphic" in2="effect1_dropShadow_38_37" result="shape"/>
</filter>
</defs>
</svg>
